<svg xmlns="http://www.w3.org/2000/svg"  viewBox="0 0 64 64" width="64px" height="64px"><path d="M 20.027344 2.023438 C 19.503906 2.058594 19.003906 2.300781 18.644531 2.726563 C 17.59375 3.953125 15.835938 7.195313 15.886719 15.0625 C 15.886719 15.097656 15.902344 15.125 15.90625 15.160156 C 13.324219 18.464844 12 22.78125 12 28.015625 C 12 30.53125 12.664063 32.753906 13.96875 34.65625 C 13.664063 34.835938 13.398438 35.078125 13.199219 35.382813 C 13.011719 35.660156 12.835938 35.945313 12.648438 36.253906 C 12.210938 37 12.160156 37.882813 12.4375 38.648438 C 11.59375 40.148438 10.925781 41.746094 10.46875 43.414063 C 9.503906 46.9375 9 52.589844 9 56.351563 L 9 59.054688 C 9 60.707031 10.347656 62 12 62 L 54 62 C 55.652344 62 57 60.707031 57 59.054688 L 57 56.351563 C 57 52.589844 56.496094 46.9375 55.53125 43.410156 C 55.070313 41.734375 54.394531 40.125 53.539063 38.609375 C 53.816406 37.828125 53.753906 36.9375 53.300781 36.175781 C 53.144531 35.910156 52.984375 35.652344 52.8125 35.394531 C 52.613281 35.085938 52.339844 34.839844 52.03125 34.65625 C 53.335938 32.753906 54 30.53125 54 28.015625 C 54 22.734375 52.6875 18.421875 50.097656 15.132813 C 50.101563 15.109375 50.113281 15.085938 50.113281 15.0625 C 50.164063 7.195313 48.40625 3.957031 47.355469 2.726563 C 46.777344 2.050781 45.847656 1.832031 45.039063 2.1875 C 43.828125 2.71875 40.835938 4.378906 38.363281 8.507813 C 36.65625 8.1875 34.859375 8.015625 33 8.015625 C 31.121094 8.015625 29.335938 8.191406 27.640625 8.507813 C 25.167969 4.378906 22.175781 2.71875 20.960938 2.1875 C 20.660156 2.054688 20.335938 2 20.027344 2.023438 Z M 20.15625 4.015625 C 21.136719 4.445313 23.480469 5.753906 25.574219 8.976563 C 24.917969 9.160156 24.269531 9.363281 23.644531 9.597656 C 23.128906 9.792969 22.871094 10.367188 23.0625 10.886719 C 23.214844 11.285156 23.59375 11.53125 24 11.53125 C 24.117188 11.53125 24.238281 11.511719 24.355469 11.46875 C 26.914063 10.503906 29.824219 10.015625 33 10.015625 C 34.980469 10.015625 36.886719 10.207031 38.667969 10.59375 C 38.972656 10.660156 39.265625 10.570313 39.492188 10.390625 C 39.503906 10.378906 39.511719 10.371094 39.519531 10.363281 C 39.601563 10.292969 39.675781 10.210938 39.730469 10.113281 C 39.738281 10.101563 39.75 10.09375 39.757813 10.082031 C 41.992188 6.035156 44.757813 4.492188 45.832031 4.023438 C 46.464844 4.761719 47.847656 7.054688 48.078125 12.992188 C 47.609375 12.578125 47.121094 12.183594 46.59375 11.816406 C 46.144531 11.5 45.519531 11.609375 45.203125 12.058594 C 44.882813 12.511719 44.992188 13.136719 45.445313 13.453125 C 49.792969 16.511719 52 21.410156 52 28.015625 C 52 30.78125 51.050781 33.113281 49.175781 34.957031 C 49.097656 35.03125 49.015625 35.105469 48.9375 35.179688 C 48.832031 35.277344 48.726563 35.375 48.613281 35.46875 C 48.542969 35.53125 48.46875 35.589844 48.394531 35.652344 C 48.289063 35.734375 48.1875 35.824219 48.078125 35.90625 C 47.996094 35.96875 47.90625 36.03125 47.820313 36.09375 C 47.71875 36.164063 47.621094 36.238281 47.519531 36.308594 C 47.421875 36.375 47.316406 36.441406 47.21875 36.503906 C 47.125 36.566406 47.03125 36.628906 46.9375 36.6875 C 46.820313 36.757813 46.703125 36.824219 46.582031 36.890625 C 46.5 36.9375 46.417969 36.988281 46.332031 37.035156 C 46.199219 37.109375 46.0625 37.179688 45.921875 37.25 C 45.851563 37.285156 45.785156 37.324219 45.714844 37.359375 C 45.554688 37.4375 45.390625 37.515625 45.230469 37.589844 C 45.179688 37.613281 45.132813 37.636719 45.082031 37.65625 C 44.898438 37.742188 44.710938 37.820313 44.527344 37.898438 C 44.496094 37.910156 44.46875 37.921875 44.4375 37.9375 C 44.226563 38.023438 44.011719 38.105469 43.796875 38.1875 C 43.792969 38.1875 43.789063 38.1875 43.785156 38.1875 C 38.691406 40.074219 33.089844 40.015625 32.984375 40.015625 C 32.882813 40.019531 22.355469 40.136719 17.007813 35.128906 C 16.949219 35.074219 16.886719 35.023438 16.828125 34.964844 C 14.949219 33.117188 14 30.78125 14 28.015625 C 14 23 15.285156 18.9375 17.816406 15.945313 C 18.105469 15.605469 18.113281 15.132813 17.886719 14.773438 C 17.882813 7.5 19.472656 4.832031 20.15625 4.015625 Z M 25 18 C 22.792969 18 21 19.792969 21 22 C 21 22.554688 21.449219 23 22 23 C 22.550781 23 23 22.554688 23 22 C 23 20.898438 23.898438 20 25 20 C 26.101563 20 27 20.898438 27 22 C 27 22.554688 27.449219 23 28 23 C 28.550781 23 29 22.554688 29 22 C 29 19.792969 27.207031 18 25 18 Z M 41 18 C 38.792969 18 37 19.792969 37 22 C 37 22.554688 37.449219 23 38 23 C 38.550781 23 39 22.554688 39 22 C 39 20.898438 39.898438 20 41 20 C 42.101563 20 43 20.898438 43 22 C 43 22.554688 43.449219 23 44 23 C 44.550781 23 45 22.554688 45 22 C 45 19.792969 43.207031 18 41 18 Z M 31.078125 25 C 30.304688 25 29.613281 25.4375 29.277344 26.136719 C 28.941406 26.832031 29.035156 27.644531 29.519531 28.25 L 31.4375 30.644531 C 31.546875 30.78125 31.671875 30.898438 31.808594 31 C 31.34375 32.234375 30.007813 33 28.121094 33 C 26.429688 33 25.664063 32.449219 24.769531 31.363281 C 24.417969 30.9375 23.792969 30.878906 23.363281 31.230469 C 22.9375 31.582031 22.875 32.210938 23.230469 32.636719 C 24.398438 34.054688 25.675781 35 28.121094 35 C 30.25 35 31.980469 34.214844 33 32.933594 C 34.019531 34.214844 35.75 35 37.878906 35 C 40.324219 35 41.601563 34.054688 42.769531 32.636719 C 43.121094 32.210938 43.0625 31.582031 42.636719 31.230469 C 42.210938 30.878906 41.582031 30.9375 41.230469 31.363281 C 40.335938 32.449219 39.570313 33 37.878906 33 C 35.992188 33 34.65625 32.234375 34.191406 31 C 34.328125 30.898438 34.453125 30.785156 34.5625 30.648438 L 36.480469 28.25 C 36.964844 27.644531 37.058594 26.832031 36.71875 26.136719 C 36.386719 25.433594 35.695313 25 34.921875 25 Z M 31.078125 27 L 34.921875 27 L 33.277344 29.058594 C 33.1875 29.03125 33.097656 29 33 29 C 32.902344 29 32.8125 29.027344 32.722656 29.054688 Z M 15.175781 36.328125 C 15.296875 36.328125 15.414063 36.375 15.515625 36.472656 C 15.804688 36.753906 16.109375 37.011719 16.421875 37.265625 C 16.472656 37.304688 16.523438 37.347656 16.574219 37.390625 C 16.898438 37.644531 17.238281 37.882813 17.585938 38.109375 C 17.652344 38.152344 17.714844 38.195313 17.78125 38.238281 C 18.121094 38.457031 18.46875 38.660156 18.828125 38.855469 C 18.902344 38.894531 18.984375 38.9375 19.0625 38.976563 C 19.410156 39.160156 19.765625 39.332031 20.125 39.496094 C 20.214844 39.535156 20.304688 39.574219 20.398438 39.613281 C 20.75 39.765625 21.105469 39.910156 21.460938 40.046875 C 21.566406 40.085938 21.667969 40.121094 21.777344 40.15625 C 22.121094 40.28125 22.464844 40.402344 22.8125 40.511719 C 22.933594 40.546875 23.054688 40.582031 23.175781 40.617188 C 23.453125 40.699219 23.730469 40.777344 24.003906 40.851563 C 24.203125 40.902344 24.398438 40.953125 24.59375 41 C 24.808594 41.054688 25.019531 41.101563 25.230469 41.148438 C 25.496094 41.207031 25.761719 41.265625 26.023438 41.316406 C 26.167969 41.34375 26.308594 41.371094 26.449219 41.394531 C 26.808594 41.460938 27.152344 41.523438 27.496094 41.574219 C 27.542969 41.582031 27.589844 41.589844 27.636719 41.59375 C 29.492188 41.875 31.050781 41.96875 32.003906 42 L 32.003906 43.996094 C 30.042969 43.933594 25.597656 43.621094 21.285156 42.109375 C 19.21875 41.378906 17.414063 40.460938 15.914063 39.375 C 15.421875 39.03125 14.949219 38.652344 14.511719 38.261719 C 14.238281 38.015625 14.183594 37.59375 14.378906 37.261719 C 14.535156 37 14.695313 36.738281 14.867188 36.484375 C 14.925781 36.394531 15.015625 36.34375 15.125 36.328125 C 15.144531 36.328125 15.160156 36.328125 15.175781 36.328125 Z M 50.875 36.332031 C 50.992188 36.347656 51.082031 36.398438 51.140625 36.496094 C 51.292969 36.726563 51.441406 36.960938 51.582031 37.199219 C 51.742188 37.464844 51.746094 37.796875 51.609375 38.050781 C 51.605469 38.054688 51.605469 38.054688 51.605469 38.058594 C 51.558594 38.140625 51.503906 38.214844 51.433594 38.28125 C 51.007813 38.648438 50.554688 39.003906 50.082031 39.34375 C 44.542969 43.265625 37.152344 43.914063 34 44 L 34 42 C 34.957031 41.96875 36.511719 41.871094 38.355469 41.597656 C 38.414063 41.589844 38.472656 41.578125 38.53125 41.570313 C 38.867188 41.519531 39.207031 41.460938 39.554688 41.394531 C 39.6875 41.371094 39.824219 41.347656 39.957031 41.320313 C 40.238281 41.265625 40.515625 41.207031 40.800781 41.140625 C 40.988281 41.101563 41.175781 41.058594 41.363281 41.011719 C 41.59375 40.957031 41.820313 40.898438 42.050781 40.835938 C 42.292969 40.773438 42.53125 40.703125 42.769531 40.632813 C 42.933594 40.585938 43.097656 40.539063 43.261719 40.484375 C 43.5625 40.390625 43.867188 40.285156 44.171875 40.175781 C 44.308594 40.128906 44.441406 40.082031 44.578125 40.03125 C 44.902344 39.90625 45.230469 39.777344 45.554688 39.636719 C 45.675781 39.585938 45.792969 39.53125 45.914063 39.476563 C 46.246094 39.328125 46.578125 39.167969 46.902344 39 C 47.007813 38.941406 47.109375 38.886719 47.214844 38.828125 C 47.546875 38.648438 47.875 38.457031 48.191406 38.253906 C 48.28125 38.199219 48.367188 38.144531 48.453125 38.089844 C 48.78125 37.871094 49.101563 37.640625 49.410156 37.402344 C 49.476563 37.351563 49.539063 37.296875 49.601563 37.246094 C 49.910156 37 50.210938 36.742188 50.496094 36.46875 C 50.597656 36.367188 50.734375 36.316406 50.875 36.332031 Z M 52.160156 40.246094 C 52.765625 41.421875 53.25 42.660156 53.601563 43.9375 C 54.519531 47.296875 55 52.722656 55 56.351563 L 55 59.054688 C 55 59.605469 54.550781 60.054688 54 60.054688 L 12 60.054688 C 11.449219 60.054688 11 59.605469 11 59.054688 L 11 56.351563 C 11 52.722656 11.480469 47.296875 12.398438 43.941406 C 12.746094 42.675781 13.222656 41.457031 13.816406 40.292969 C 14.121094 40.539063 14.433594 40.78125 14.753906 41.003906 C 16.394531 42.195313 18.367188 43.199219 20.621094 44 C 23.898438 45.144531 27.242188 45.640625 29.636719 45.855469 C 29.238281 46.472656 29 47.210938 29 48 C 29 50.207031 30.792969 52 33 52 C 35.207031 52 37 50.207031 37 48 C 37 47.210938 36.761719 46.480469 36.367188 45.859375 C 40.285156 45.515625 46.382813 44.410156 51.238281 40.96875 C 51.5625 40.742188 51.855469 40.488281 52.160156 40.246094 Z M 32.855469 46.015625 L 33.140625 46.015625 C 34.179688 46.089844 35 46.945313 35 48 C 35 49.101563 34.101563 50 33 50 C 31.898438 50 31 49.101563 31 48 C 31 46.945313 31.820313 46.089844 32.855469 46.015625 Z M 13 54 C 12.449219 54 12 54.5 12 55.054688 L 12 57.054688 C 12 57.605469 12.449219 58 13 58 C 13.550781 58 14 57.554688 14 57 L 14 55 C 14 54.445313 13.550781 54 13 54 Z M 18 54 C 17.449219 54 17 54.445313 17 55 L 17 57 C 17 57.554688 17.449219 58 18 58 C 18.550781 58 19 57.554688 19 57 L 19 55 C 19 54.445313 18.550781 54 18 54 Z M 23 54 C 22.449219 54 22 54.445313 22 55 L 22 57 C 22 57.554688 22.449219 58 23 58 C 23.550781 58 24 57.554688 24 57 L 24 55 C 24 54.445313 23.550781 54 23 54 Z M 28 54 C 27.449219 54 27 54.445313 27 55 L 27 57 C 27 57.554688 27.449219 58 28 58 C 28.550781 58 29 57.554688 29 57 L 29 55 C 29 54.445313 28.550781 54 28 54 Z M 33 54 C 32.449219 54 32 54.445313 32 55 L 32 57 C 32 57.554688 32.449219 58 33 58 C 33.550781 58 34 57.554688 34 57 L 34 55 C 34 54.445313 33.550781 54 33 54 Z M 38 54 C 37.449219 54 37 54.445313 37 55 L 37 57 C 37 57.554688 37.449219 58 38 58 C 38.550781 58 39 57.554688 39 57 L 39 55 C 39 54.445313 38.550781 54 38 54 Z M 43 54 C 42.449219 54 42 54.445313 42 55 L 42 57 C 42 57.554688 42.449219 58 43 58 C 43.550781 58 44 57.554688 44 57 L 44 55 C 44 54.445313 43.550781 54 43 54 Z M 48 54 C 47.449219 54 47 54.445313 47 55 L 47 57 C 47 57.554688 47.449219 58 48 58 C 48.550781 58 49 57.554688 49 57 L 49 55 C 49 54.445313 48.550781 54 48 54 Z M 53 54 C 52.449219 54 52 54.445313 52 55 L 52 57 C 52 57.554688 52.449219 58 53 58 C 53.550781 58 54 57.554688 54 57 L 54 55 C 54 54.445313 53.550781 54 53 54 Z"/></svg>